<svg id="visual" viewBox="0 0 900 150" width="900" height="150" xmlns="http://www.w3.org/2000/svg" xmlns:xlink="http://www.w3.org/1999/xlink" version="1.1"><rect x="0" y="0" width="900" height="150" fill="#fff"></rect><path d="M0 52L21.5 50.5C43 49 86 46 128.8 47.2C171.7 48.3 214.3 53.7 257.2 56.3C300 59 343 59 385.8 56.8C428.7 54.7 471.3 50.3 514.2 48.3C557 46.3 600 46.7 642.8 46.8C685.7 47 728.3 47 771.2 45.5C814 44 857 41 878.5 39.5L900 38L900 0L878.5 0C857 0 814 0 771.2 0C728.3 0 685.7 0 642.8 0C600 0 557 0 514.2 0C471.3 0 428.7 0 385.8 0C343 0 300 0 257.2 0C214.3 0 171.7 0 128.8 0C86 0 43 0 21.5 0L0 0Z" fill="#ffb075"></path><path d="M0 40L21.5 39.5C43 39 86 38 128.8 37.5C171.7 37 214.3 37 257.2 37C300 37 343 37 385.8 36.7C428.7 36.3 471.3 35.7 514.2 36.7C557 37.7 600 40.3 642.8 42C685.7 43.7 728.3 44.3 771.2 45.2C814 46 857 47 878.5 47.5L900 48L900 0L878.5 0C857 0 814 0 771.2 0C728.3 0 685.7 0 642.8 0C600 0 557 0 514.2 0C471.3 0 428.7 0 385.8 0C343 0 300 0 257.2 0C214.3 0 171.7 0 128.8 0C86 0 43 0 21.5 0L0 0Z" fill="#ff9e57"></path><path d="M0 27L21.5 28.2C43 29.3 86 31.7 128.8 33C171.7 34.3 214.3 34.7 257.2 33C300 31.3 343 27.7 385.8 27.7C428.7 27.7 471.3 31.3 514.2 31.5C557 31.7 600 28.3 642.8 26.5C685.7 24.7 728.3 24.3 771.2 26.3C814 28.3 857 32.7 878.5 34.8L900 37L900 0L878.5 0C857 0 814 0 771.2 0C728.3 0 685.7 0 642.8 0C600 0 557 0 514.2 0C471.3 0 428.7 0 385.8 0C343 0 300 0 257.2 0C214.3 0 171.7 0 128.8 0C86 0 43 0 21.5 0L0 0Z" fill="#ff8c38"></path><path d="M0 15L21.5 16.2C43 17.3 86 19.7 128.8 21.5C171.7 23.3 214.3 24.7 257.2 23.8C300 23 343 20 385.8 18.7C428.7 17.3 471.3 17.7 514.2 18C557 18.3 600 18.7 642.8 19.7C685.7 20.7 728.3 22.3 771.2 23C814 23.7 857 23.3 878.5 23.2L900 23L900 0L878.5 0C857 0 814 0 771.2 0C728.3 0 685.7 0 642.8 0C600 0 557 0 514.2 0C471.3 0 428.7 0 385.8 0C343 0 300 0 257.2 0C214.3 0 171.7 0 128.8 0C86 0 43 0 21.5 0L0 0Z" fill="#df792f"></path><path d="M0 12L21.5 12.7C43 13.3 86 14.7 128.8 15.5C171.7 16.3 214.3 16.7 257.2 15.5C300 14.3 343 11.7 385.8 11C428.7 10.3 471.3 11.7 514.2 11.2C557 10.7 600 8.3 642.8 7.3C685.7 6.3 728.3 6.7 771.2 8C814 9.3 857 11.7 878.5 12.8L900 14L900 0L878.5 0C857 0 814 0 771.2 0C728.3 0 685.7 0 642.8 0C600 0 557 0 514.2 0C471.3 0 428.7 0 385.8 0C343 0 300 0 257.2 0C214.3 0 171.7 0 128.8 0C86 0 43 0 21.5 0L0 0Z" fill="#c06626"></path></svg>