<svg id="visual" viewBox="0 0 900 360" width="900" height="360" xmlns="http://www.w3.org/2000/svg" xmlns:xlink="http://www.w3.org/1999/xlink" version="1.1"><rect x="0" y="0" width="900" height="360" fill="#fff"></rect><path d="M0 257L21.5 255.2C43 253.3 86 249.7 128.8 247.3C171.7 245 214.3 244 257.2 241C300 238 343 233 385.8 236C428.7 239 471.3 250 514.2 248.2C557 246.3 600 231.7 642.8 223.3C685.7 215 728.3 213 771.2 217C814 221 857 231 878.5 236L900 241L900 361L878.5 361C857 361 814 361 771.2 361C728.3 361 685.7 361 642.8 361C600 361 557 361 514.2 361C471.3 361 428.7 361 385.8 361C343 361 300 361 257.2 361C214.3 361 171.7 361 128.8 361C86 361 43 361 21.5 361L0 361Z" fill="#ffb075"></path><path d="M0 282L21.5 278.5C43 275 86 268 128.8 261.8C171.7 255.7 214.3 250.3 257.2 246.3C300 242.3 343 239.7 385.8 239.5C428.7 239.3 471.3 241.7 514.2 247.5C557 253.3 600 262.7 642.8 264.7C685.7 266.7 728.3 261.3 771.2 258.2C814 255 857 254 878.5 253.5L900 253L900 361L878.5 361C857 361 814 361 771.2 361C728.3 361 685.7 361 642.8 361C600 361 557 361 514.2 361C471.3 361 428.7 361 385.8 361C343 361 300 361 257.2 361C214.3 361 171.7 361 128.8 361C86 361 43 361 21.5 361L0 361Z" fill="#ff9e57"></path><path d="M0 288L21.5 289.7C43 291.3 86 294.7 128.8 297C171.7 299.3 214.3 300.7 257.2 297.3C300 294 343 286 385.8 285.5C428.7 285 471.3 292 514.2 294.8C557 297.7 600 296.3 642.8 295.7C685.7 295 728.3 295 771.2 291.7C814 288.3 857 281.7 878.5 278.3L900 275L900 361L878.5 361C857 361 814 361 771.2 361C728.3 361 685.7 361 642.8 361C600 361 557 361 514.2 361C471.3 361 428.7 361 385.8 361C343 361 300 361 257.2 361C214.3 361 171.7 361 128.8 361C86 361 43 361 21.5 361L0 361Z" fill="#ff8c38"></path><path d="M0 289L21.5 290.7C43 292.3 86 295.7 128.8 299.3C171.7 303 214.3 307 257.2 311.2C300 315.3 343 319.7 385.8 319.2C428.7 318.7 471.3 313.3 514.2 312.5C557 311.7 600 315.3 642.8 316.7C685.7 318 728.3 317 771.2 312.2C814 307.3 857 298.7 878.5 294.3L900 290L900 361L878.5 361C857 361 814 361 771.2 361C728.3 361 685.7 361 642.8 361C600 361 557 361 514.2 361C471.3 361 428.7 361 385.8 361C343 361 300 361 257.2 361C214.3 361 171.7 361 128.8 361C86 361 43 361 21.5 361L0 361Z" fill="#df792f"></path><path d="M0 326L21.5 324.2C43 322.3 86 318.7 128.8 321.2C171.7 323.7 214.3 332.3 257.2 335.7C300 339 343 337 385.8 336.3C428.7 335.7 471.3 336.3 514.2 333C557 329.7 600 322.3 642.8 322.8C685.7 323.3 728.3 331.7 771.2 332.7C814 333.7 857 327.3 878.5 324.2L900 321L900 361L878.5 361C857 361 814 361 771.2 361C728.3 361 685.7 361 642.8 361C600 361 557 361 514.2 361C471.3 361 428.7 361 385.8 361C343 361 300 361 257.2 361C214.3 361 171.7 361 128.8 361C86 361 43 361 21.5 361L0 361Z" fill="#c06626"></path></svg>